<?xml version="1.0" encoding="UTF-8" standalone="no"?>
<svg width="171px" height="52px" viewBox="0 0 171 52" version="1.1" xmlns="http://www.w3.org/2000/svg" xmlns:xlink="http://www.w3.org/1999/xlink">
    <!-- Generator: Sketch 47.1 (45422) - http://www.bohemiancoding.com/sketch -->
    <title>google-play</title>
    <desc>Created with Sketch.</desc>
    <defs>
        <linearGradient x1="91.5361538%" y1="4.8388%" x2="-37.5592308%" y2="71.9684%" id="linearGradient-1">
            <stop stop-color="#00A0FF" offset="0%"></stop>
            <stop stop-color="#00A1FF" offset="0.657445%"></stop>
            <stop stop-color="#00BEFF" offset="26.01%"></stop>
            <stop stop-color="#00D2FF" offset="51.22%"></stop>
            <stop stop-color="#00DFFF" offset="76.04%"></stop>
            <stop stop-color="#00E3FF" offset="100%"></stop>
        </linearGradient>
        <linearGradient x1="107.728079%" y1="49.4282353%" x2="-130.665025%" y2="49.4282353%" id="linearGradient-2">
            <stop stop-color="#FFE000" offset="0%"></stop>
            <stop stop-color="#FFBD00" offset="40.87%"></stop>
            <stop stop-color="#FFA500" offset="77.54%"></stop>
            <stop stop-color="#FF9C00" offset="100%"></stop>
        </linearGradient>
        <linearGradient x1="86.3892216%" y1="17.8150459%" x2="-49.888024%" y2="194.392791%" id="linearGradient-3">
            <stop stop-color="#FF3A44" offset="0%"></stop>
            <stop stop-color="#C31162" offset="100%"></stop>
        </linearGradient>
        <linearGradient x1="-18.5790419%" y1="-54.5266535%" x2="42.2748503%" y2="24.6901019%" id="linearGradient-4">
            <stop stop-color="#32A071" offset="0%"></stop>
            <stop stop-color="#2DA771" offset="6.85%"></stop>
            <stop stop-color="#15CF74" offset="47.62%"></stop>
            <stop stop-color="#06E775" offset="80.09%"></stop>
            <stop stop-color="#00F076" offset="100%"></stop>
        </linearGradient>
    </defs>
    <g id="utility_token" stroke="none" stroke-width="1" fill="none" fill-rule="evenodd">
        <g id="LKT_landing/07a_footer" transform="translate(-1006.000000, -679.000000)">
            <g id="Group-9-Copy-2" transform="translate(821.000000, 680.000000)">
                <g id="google-play" transform="translate(185.999574, 0.000000)">
                    <g id="Group">
                        <path d="M6.25559105,50 C2.75246006,50 0,47.25 0,43.75 L0,6.25 C0,2.75 2.75246006,0 6.25559105,0 L162.645367,0 C166.148498,0 168.900958,2.75 168.900958,6.25 L168.900958,43.75 C168.900958,47.125 166.148498,50 162.645367,50 L6.25559105,50 Z" id="Shape" stroke="#FFFFFF" opacity="0.300000012"></path>
                        <g transform="translate(51.295847, 8.333333)" id="Shape" stroke="#FFFFFF" stroke-width="0.2" fill="#FFFFFF">
                            <path d="M8.00715655,4.41666667 C8.00715655,5.41666667 7.75693291,6.29166667 7.1313738,6.91666667 C6.38070288,7.66666667 5.50492013,8.04166667 4.37891374,8.04166667 C3.25290735,8.04166667 2.3771246,7.66666667 1.62645367,6.91666667 C0.875782748,6.16666667 0.500447284,5.29166667 0.500447284,4.16666667 C0.500447284,3.04166667 0.875782748,2.16666667 1.62645367,1.41666667 C2.3771246,0.666666667 3.25290735,0.291666667 4.37891374,0.291666667 C4.87936102,0.291666667 5.37980831,0.416666667 5.88025559,0.666666667 C6.38070288,0.916666667 6.75603834,1.16666667 7.00626198,1.54166667 L6.38070288,2.16666667 C5.88025559,1.54166667 5.25469649,1.29166667 4.37891374,1.29166667 C3.62824281,1.29166667 2.87757188,1.54166667 2.3771246,2.16666667 C1.7515655,2.66666667 1.50134185,3.41666667 1.50134185,4.29166667 C1.50134185,5.16666667 1.7515655,5.91666667 2.3771246,6.41666667 C3.00268371,6.91666667 3.62824281,7.29166667 4.37891374,7.29166667 C5.25469649,7.29166667 5.88025559,7.04166667 6.5058147,6.41666667 C6.88115016,6.04166667 7.1313738,5.54166667 7.1313738,4.91666667 L4.37891374,4.91666667 L4.37891374,4.04166667 L8.00715655,4.04166667 C8.00715655,4.04166667 8.00715655,4.29166667 8.00715655,4.41666667 L8.00715655,4.41666667 Z"></path>
                            <polygon points="13.7623003 1.29166667 10.3842812 1.29166667 10.3842812 3.66666667 13.5120767 3.66666667 13.5120767 4.54166667 10.3842812 4.54166667 10.3842812 6.91666667 13.7623003 6.91666667 13.7623003 7.91666667 9.38338658 7.91666667 9.38338658 0.416666667 13.7623003 0.416666667"></polygon>
                            <polygon points="17.8909904 7.91666667 16.8900958 7.91666667 16.8900958 1.29166667 14.7631949 1.29166667 14.7631949 0.416666667 20.0178914 0.416666667 20.0178914 1.29166667 17.8909904 1.29166667"></polygon>
                            <polygon points="23.6461342 7.91666667 23.6461342 0.416666667 24.6470288 0.416666667 24.6470288 7.91666667"></polygon>
                            <polygon points="28.9008307 7.91666667 27.8999361 7.91666667 27.8999361 1.29166667 25.7730351 1.29166667 25.7730351 0.416666667 30.9026198 0.416666667 30.9026198 1.29166667 28.7757188 1.29166667 28.7757188 7.91666667"></polygon>
                            <path d="M40.7864537,6.91666667 C40.0357827,7.66666667 39.16,8.04166667 38.0339936,8.04166667 C36.9079872,8.04166667 36.0322045,7.66666667 35.2815335,6.91666667 C34.5308626,6.16666667 34.1555272,5.29166667 34.1555272,4.16666667 C34.1555272,3.04166667 34.5308626,2.16666667 35.2815335,1.41666667 C36.0322045,0.666666667 36.9079872,0.291666667 38.0339936,0.291666667 C39.16,0.291666667 40.0357827,0.666666667 40.7864537,1.41666667 C41.5371246,2.16666667 41.9124601,3.04166667 41.9124601,4.16666667 C41.9124601,5.29166667 41.5371246,6.16666667 40.7864537,6.91666667 L40.7864537,6.91666667 Z M36.0322045,6.29166667 C36.5326518,6.79166667 37.2833227,7.16666667 38.0339936,7.16666667 C38.7846645,7.16666667 39.5353355,6.91666667 40.0357827,6.29166667 C40.53623,5.79166667 40.9115655,5.04166667 40.9115655,4.16666667 C40.9115655,3.29166667 40.6613419,2.54166667 40.0357827,2.04166667 C39.5353355,1.54166667 38.7846645,1.16666667 38.0339936,1.16666667 C37.2833227,1.16666667 36.5326518,1.41666667 36.0322045,2.04166667 C35.5317572,2.54166667 35.1564217,3.29166667 35.1564217,4.16666667 C35.1564217,5.04166667 35.4066454,5.79166667 36.0322045,6.29166667 L36.0322045,6.29166667 Z"></path>
                            <polygon points="43.2886901 7.91666667 43.2886901 0.416666667 44.4146965 0.416666667 48.0429393 6.29166667 48.0429393 6.29166667 48.0429393 4.79166667 48.0429393 0.416666667 49.0438339 0.416666667 49.0438339 7.91666667 48.0429393 7.91666667 44.1644728 1.79166667 44.1644728 1.79166667 44.1644728 3.29166667 44.1644728 7.91666667"></polygon>
                        </g>
                        <path d="M85.2011502,27.25 C82.1984665,27.25 79.8213419,29.5 79.8213419,32.625 C79.8213419,35.625 82.1984665,38 85.2011502,38 C88.2038339,38 90.5809585,35.75 90.5809585,32.625 C90.5809585,29.375 88.2038339,27.25 85.2011502,27.25 L85.2011502,27.25 Z M85.2011502,35.75 C83.5746965,35.75 82.1984665,34.375 82.1984665,32.5 C82.1984665,30.625 83.5746965,29.25 85.2011502,29.25 C86.8276038,29.25 88.2038339,30.5 88.2038339,32.5 C88.2038339,34.375 86.8276038,35.75 85.2011502,35.75 L85.2011502,35.75 Z M73.5657508,27.25 C70.5630671,27.25 68.1859425,29.5 68.1859425,32.625 C68.1859425,35.625 70.5630671,38 73.5657508,38 C76.5684345,38 78.9455591,35.75 78.9455591,32.625 C78.9455591,29.375 76.5684345,27.25 73.5657508,27.25 L73.5657508,27.25 Z M73.5657508,35.75 C71.9392971,35.75 70.5630671,34.375 70.5630671,32.5 C70.5630671,30.625 71.9392971,29.25 73.5657508,29.25 C75.1922045,29.25 76.5684345,30.5 76.5684345,32.5 C76.5684345,34.375 75.1922045,35.75 73.5657508,35.75 L73.5657508,35.75 Z M59.6783387,28.875 L59.6783387,31.125 L65.058147,31.125 C64.9330351,32.375 64.4325879,33.375 63.8070288,34 C63.0563578,34.75 61.8052396,35.625 59.6783387,35.625 C56.3003195,35.625 53.7980831,33 53.7980831,29.625 C53.7980831,26.25 56.4254313,23.625 59.6783387,23.625 C61.4299042,23.625 62.8061342,24.375 63.8070288,25.25 L65.4334824,23.625 C64.0572524,22.375 62.3056869,21.375 59.8034505,21.375 C55.2994249,21.375 51.4209585,25.125 51.4209585,29.625 C51.4209585,34.125 55.2994249,37.875 59.8034505,37.875 C62.3056869,37.875 64.0572524,37.125 65.5585942,35.5 C67.0599361,34 67.5603834,31.875 67.5603834,30.25 C67.5603834,29.75 67.5603834,29.25 67.4352716,28.875 L59.6783387,28.875 L59.6783387,28.875 Z M116.479105,30.625 C115.978658,29.375 114.72754,27.25 111.97508,27.25 C109.22262,27.25 106.970607,29.375 106.970607,32.625 C106.970607,35.625 109.22262,38 112.225304,38 C114.602428,38 116.10377,36.5 116.604217,35.625 L114.852652,34.375 C114.227093,35.25 113.476422,35.875 112.225304,35.875 C110.974185,35.875 110.223514,35.375 109.597955,34.25 L116.729329,31.25 L116.479105,30.625 L116.479105,30.625 Z M109.22262,32.375 C109.22262,30.375 110.849073,29.25 111.97508,29.25 C112.850863,29.25 113.726645,29.75 113.976869,30.375 L109.22262,32.375 L109.22262,32.375 Z M103.342364,37.5 L105.719489,37.5 L105.719489,21.875 L103.342364,21.875 L103.342364,37.5 L103.342364,37.5 Z M99.5890096,28.375 L99.5890096,28.375 C98.9634505,27.75 97.9625559,27.125 96.7114377,27.125 C94.0840895,27.125 91.581853,29.5 91.581853,32.5 C91.581853,35.5 93.9589776,37.75 96.7114377,37.75 C97.9625559,37.75 98.9634505,37.125 99.4638978,36.5 L99.5890096,36.5 L99.5890096,37.25 C99.5890096,39.25 98.4630032,40.375 96.7114377,40.375 C95.3352077,40.375 94.3343131,39.375 94.0840895,38.5 L92.0823003,39.375 C92.7078594,40.75 94.2092013,42.5 96.8365495,42.5 C99.5890096,42.5 101.841022,40.875 101.841022,37 L101.841022,27.5 L99.5890096,27.5 L99.5890096,28.375 L99.5890096,28.375 Z M96.8365495,35.75 C95.2100958,35.75 93.8338658,34.375 93.8338658,32.5 C93.8338658,30.625 95.2100958,29.25 96.8365495,29.25 C98.4630032,29.25 99.7141214,30.625 99.7141214,32.5 C99.7141214,34.375 98.4630032,35.75 96.8365495,35.75 L96.8365495,35.75 Z M127.363834,21.875 L121.733802,21.875 L121.733802,37.5 L124.110927,37.5 L124.110927,31.625 L127.363834,31.625 C129.991182,31.625 132.493419,29.75 132.493419,26.75 C132.493419,23.75 129.991182,21.875 127.363834,21.875 L127.363834,21.875 Z M127.488946,29.375 L124.110927,29.375 L124.110927,24 L127.488946,24 C129.240511,24 130.241406,25.5 130.241406,26.625 C130.116294,28 129.115399,29.375 127.488946,29.375 L127.488946,29.375 Z M141.876805,27.125 C140.12524,27.125 138.373674,27.875 137.748115,29.5 L139.875016,30.375 C140.375463,29.5 141.126134,29.25 142.001917,29.25 C143.253035,29.25 144.379042,30 144.504153,31.25 L144.504153,31.375 C144.128818,31.125 143.127923,30.75 142.127029,30.75 C139.875016,30.75 137.623003,32 137.623003,34.25 C137.623003,36.375 139.499681,37.75 141.50147,37.75 C143.127923,37.75 143.878594,37 144.504153,36.25 L144.629265,36.25 L144.629265,37.5 L146.881278,37.5 L146.881278,31.5 C146.631054,28.75 144.504153,27.125 141.876805,27.125 L141.876805,27.125 Z M141.626581,35.75 C140.875911,35.75 139.749904,35.375 139.749904,34.375 C139.749904,33.125 141.126134,32.75 142.252141,32.75 C143.253035,32.75 143.753482,33 144.379042,33.25 C144.128818,34.75 142.8777,35.75 141.626581,35.75 L141.626581,35.75 Z M154.763323,27.5 L152.135974,34.25 L152.010863,34.25 L149.258403,27.5 L146.756166,27.5 L150.884856,37 L148.507732,42.25 L150.884856,42.25 L157.265559,27.5 L154.763323,27.5 L154.763323,27.5 Z M133.744537,37.5 L136.121661,37.5 L136.121661,21.875 L133.744537,21.875 L133.744537,37.5 L133.744537,37.5 Z" id="Shape" fill="#FFFFFF"></path>
                        <g transform="translate(12.094143, 8.750000)" id="Shape">
                            <path d="M0.917486688,0.625 C0.542151225,1 0.291927583,1.625 0.291927583,2.375 L0.291927583,30 C0.291927583,30.75 0.542151225,31.375 0.917486688,31.75 L1.04259851,31.875 L16.5564643,16.375 L16.5564643,16.25 L16.5564643,16.125 L0.917486688,0.625 L0.917486688,0.625 L0.917486688,0.625 Z" fill="url(#linearGradient-1)"></path>
                            <path d="M21.686049,21.625 L16.5564643,16.5 L16.5564643,16.25 L16.5564643,16.125 L21.686049,11 L21.8111608,11.125 L27.94164,14.625 C29.6932055,15.625 29.6932055,17.25 27.94164,18.25 L21.686049,21.625 L21.686049,21.625 L21.686049,21.625 Z" fill="url(#linearGradient-2)"></path>
                            <path d="M21.8111608,21.5 L16.5564643,16.25 L0.917486688,31.875 C1.54304579,32.5 2.41882854,32.5 3.54483493,32 L21.8111608,21.5" fill="url(#linearGradient-3)"></path>
                            <path d="M21.8111608,11 L3.54483493,0.625 C2.41882854,-5.27078381e-14 1.54304579,0.125 0.917486688,0.75 L16.5564643,16.25 L21.8111608,11 L21.8111608,11 Z" fill="url(#linearGradient-4)"></path>
                            <g transform="translate(0.417039, 21.250000)" fill="#000000">
                                <path d="M21.2690096,0.125 L3.12779553,10.375 C2.12690096,11 1.25111821,10.875 0.625559105,10.375 L0.625559105,10.375 L0.500447284,10.5 L0.500447284,10.5 L0.625559105,10.625 L0.625559105,10.625 C1.25111821,11.125 2.12690096,11.25 3.12779553,10.625 L21.2690096,0.125 L21.2690096,0.125 L21.2690096,0.125 Z" opacity="0.2"></path>
                                <path d="M0.500447284,10.375 C0.125111821,10 0,9.375 0,8.625 L0,8.75 C0,9.5 0.250223642,10.125 0.625559105,10.5 L0.625559105,10.375 L0.500447284,10.375 L0.500447284,10.375 Z" opacity="0.12"></path>
                            </g>
                            <path d="M27.94164,17.875 L21.686049,21.375 L21.8111608,21.5 L27.94164,18 C28.8174228,17.5 29.1927583,16.875 29.1927583,16.25 L29.1927583,16.25 C29.1927583,16.875 28.692311,17.375 27.94164,17.875 L27.94164,17.875 Z" fill="#000000" opacity="0.12"></path>
                            <path d="M3.54483493,0.75 L27.94164,14.625 C28.692311,15.125 29.1927583,15.625 29.1927583,16.25 L29.1927583,16.25 C29.1927583,15.625 28.8174228,15 27.94164,14.5 L3.54483493,0.625 C1.79326944,-0.375 0.417039404,0.5 0.417039404,2.5 L0.417039404,2.625 C0.417039404,0.625 1.79326944,-0.25 3.54483493,0.75 L3.54483493,0.75 Z" fill="#FFFFFF" opacity="0.25"></path>
                        </g>
                    </g>
                </g>
            </g>
        </g>
    </g>
</svg>