<?xml version="1.0" encoding="UTF-8"?>
<svg width="802px" height="383px" viewBox="0 0 802 383" version="1.1" xmlns="http://www.w3.org/2000/svg" xmlns:xlink="http://www.w3.org/1999/xlink">
    <defs></defs>
    <g id="utility_token" stroke="none" stroke-width="1" fill="none" fill-rule="evenodd">
        <g id="LKT_landing/04a_sale_details" transform="translate(-400.000000, -1144.000000)">
            <g id="graph" transform="translate(400.000000, 1144.000000)">
                <path d="M711.591112,382.12 C713.061112,382.12 713.901112,381.31 714.381112,380.48 L713.161112,379.89 C712.881112,380.44 712.281112,380.86 711.591112,380.86 C710.381112,380.86 709.501112,379.93 709.501112,378.67 C709.501112,377.41 710.381112,376.48 711.591112,376.48 C712.281112,376.48 712.881112,376.91 713.161112,377.45 L714.381112,376.85 C713.911112,376.02 713.061112,375.22 711.591112,375.22 C709.591112,375.22 708.041112,376.62 708.041112,378.67 C708.041112,380.72 709.591112,382.12 711.591112,382.12 Z M722.897778,382 L722.897778,375.33 L721.467778,375.33 L721.467778,377.95 L718.317778,377.95 L718.317778,375.33 L716.897778,375.33 L716.897778,382 L718.317778,382 L718.317778,379.2 L721.467778,379.2 L721.467778,382 L722.897778,382 Z M727.294445,382 L727.294445,379.24 L730.524445,379.24 L730.524445,377.99 L727.294445,377.99 L727.294445,376.58 L730.594445,376.58 L730.594445,375.33 L725.874445,375.33 L725.874445,382 L727.294445,382 Z M738.897778,382 L737.477778,382 L737.477778,375.33 L740.597778,375.33 C742.047778,375.33 742.837778,376.31 742.837778,377.48 C742.837778,378.64 742.037778,379.63 740.597778,379.63 L738.897778,379.63 L738.897778,382 Z M740.407778,378.38 C740.967778,378.38 741.387778,378.03 741.387778,377.48 C741.387778,376.92 740.967778,376.58 740.407778,376.58 L738.897778,376.58 L738.897778,378.38 L740.407778,378.38 Z M750.104445,382 L750.104445,380.75 L746.804445,380.75 L746.804445,379.24 L750.034445,379.24 L750.034445,377.99 L746.804445,377.99 L746.804445,376.58 L750.104445,376.58 L750.104445,375.33 L745.384445,375.33 L745.384445,382 L750.104445,382 Z M758.281111,382 L756.651111,382 L755.341111,379.63 L754.301111,379.63 L754.301111,382 L752.881111,382 L752.881111,375.33 L756.001111,375.33 C757.391111,375.33 758.241111,376.24 758.241111,377.48 C758.241111,378.66 757.501111,379.29 756.781111,379.46 L758.281111,382 Z M755.791111,378.38 C756.361111,378.38 756.791111,378.04 756.791111,377.48 C756.791111,376.92 756.361111,376.58 755.791111,376.58 L754.301111,376.58 L754.301111,378.38 L755.791111,378.38 Z M769.444445,382 L769.444445,380.75 L766.624445,380.75 L766.624445,375.33 L765.204445,375.33 L765.204445,382 L769.444445,382 Z M777.811111,382 L774.981111,378.46 L777.631111,375.33 L775.881111,375.33 L773.521111,378.31 L773.521111,375.33 L772.101111,375.33 L772.101111,382 L773.521111,382 L773.521111,379.95 L774.041111,379.33 L776.061111,382 L777.811111,382 Z M785.837778,382 L783.007778,378.46 L785.657778,375.33 L783.907778,375.33 L781.547778,378.31 L781.547778,375.33 L780.127778,375.33 L780.127778,382 L781.547778,382 L781.547778,379.95 L782.067778,379.33 L784.087778,382 L785.837778,382 Z M792.984445,382 L792.984445,380.75 L790.264445,380.75 C791.994445,379.49 792.934445,378.5 792.934445,377.36 C792.934445,376.03 791.804445,375.23 790.384445,375.23 C789.454445,375.23 788.464445,375.57 787.814445,376.32 L788.624445,377.26 C789.074445,376.79 789.654445,376.49 790.414445,376.49 C790.964445,376.49 791.494445,376.78 791.494445,377.36 C791.494445,378.18 790.694445,378.87 787.964445,380.89 L787.964445,382 L792.984445,382 Z M799.101111,382 L799.101111,379.27 L801.651111,375.33 L800.031111,375.33 L798.391111,378.01 L796.731111,375.33 L795.111111,375.33 L797.681111,379.27 L797.681111,382 L799.101111,382 Z" id="CHF-per-LKK2Y" fill="#005DF2"></path>
                <g id="Page-1" transform="translate(0.000000, 44.000000)" stroke-width="4">
                    <path d="M0,318 C40,318 35.817,245.738 80,245.738 C124.183,245.738 119,318 160,318 C200,318 195.817,211.111 240,211.111 C284.183,211.111 279,318 320,318 C360,318 355.817,166.432 400,166.432 C444.183,166.432 439,318 480,318 C520,318 515.817,96.062 560,96.062 C604.183,96.062 599,318 640,318 C680,318 675.817,0 720,0 C764.183,0 759,318 800,318" id="Stroke-1" stroke="#55E7FF"></path>
                    <path d="M0,318 C40,318 35.817,260.19 80,260.19 C124.183,260.19 119,318 160,318 C200,318 195.817,232.489 240,232.489 C284.183,232.489 279,318 320,318 C360,318 355.817,196.745 400,196.745 C444.183,196.745 439,318 480,318 C520,318 515.817,140.449 560,140.449 C604.183,140.449 599,318 640,318 C680,318 675.817,63.6 720,63.6 C764.183,63.6 759,318 800,318" id="Stroke-3" stroke="#44CBFC"></path>
                    <path d="M0,318 C40,318 35.817,274.643 80,274.643 C124.183,274.643 119,318 160,318 C200,318 195.817,253.867 240,253.867 C284.183,253.867 279,318 320,318 C360,318 355.817,227.06 400,227.06 C444.183,227.06 439,318 480,318 C520,318 515.817,184.837 560,184.837 C604.183,184.837 599,318 640,318 C680,318 675.817,127.2 720,127.2 C764.183,127.2 759,318 800,318" id="Stroke-5" stroke="#33B0FA"></path>
                    <path d="M0,318 C40,318 35.817,289.096 80,289.096 C124.183,289.096 119,318 160,318 C200,318 195.817,275.244 240,275.244 C284.183,275.244 279,318 320,318 C360,318 355.817,257.373 400,257.373 C444.183,257.373 439,318 480,318 C520,318 515.817,229.225 560,229.225 C604.183,229.225 599,318 640,318 C680,318 675.817,190.8 720,190.8 C764.183,190.8 759,318 800,318" id="Stroke-7" stroke="#2294F7"></path>
                    <path d="M0,318 C40,318 35.817,303.548 80,303.548 C124.183,303.548 119,318 160,318 C200,318 195.817,296.622 240,296.622 C284.183,296.622 279,318 320,318 C360,318 355.817,287.687 400,287.687 C444.183,287.687 439,318 480,318 C520,318 515.817,273.612 560,273.612 C604.183,273.612 599,318 640,318 C680,318 675.817,254.4 720,254.4 C764.183,254.4 759,318 800,318" id="Stroke-9" stroke="#1179F5"></path>
                    <polyline id="Stroke-11" stroke="#005DF2" points="0 318 80 318 160 318 240 318 320 318 400 318 480 318 560 318 640 318 720 318 800 318"></polyline>
                </g>
                <path d="M4.324,99 L7.3,92.184 L7.3,90.996 L1.288,90.996 L1.288,92.496 L5.32,92.496 L2.452,99 L4.324,99 Z M10.706286,98.412 C10.706286,97.632 10.190286,97.188 9.626286,97.188 C9.122286,97.188 8.690286,97.62 8.690286,98.148 C8.690286,98.664 9.050286,99.012 9.506286,99.012 C9.590286,99.012 9.698286,98.988 9.734286,98.976 C9.638286,99.396 9.194286,99.9 8.810286,100.104 L9.470286,100.644 C10.202286,100.116 10.706286,99.312 10.706286,98.412 Z M16.584572,99.144 C18.516572,99.144 19.788572,98.076 19.788572,96.372 C19.788572,94.752 18.576572,93.78 17.220572,93.78 C16.488572,93.78 15.840572,94.068 15.456572,94.452 L15.456572,92.496 L19.248572,92.496 L19.248572,90.996 L13.752572,90.996 L13.752572,95.592 L14.940572,95.904 C15.420572,95.448 15.960572,95.256 16.620572,95.256 C17.532572,95.256 18.060572,95.736 18.060572,96.444 C18.060572,97.092 17.520572,97.632 16.572572,97.632 C15.732572,97.632 14.988572,97.32 14.448572,96.756 L13.500572,97.944 C14.184572,98.688 15.192572,99.144 16.584572,99.144 Z M25.642858,99.144 C23.350858,99.144 22.330858,97.068 22.330858,95.004 C22.330858,92.94 23.350858,90.876 25.642858,90.876 C27.922858,90.876 28.954858,92.94 28.954858,95.004 C28.954858,97.068 27.922858,99.144 25.642858,99.144 Z M25.642858,97.632 C26.782858,97.632 27.214858,96.48 27.214858,95.004 C27.214858,93.528 26.782858,92.388 25.642858,92.388 C24.490858,92.388 24.058858,93.528 24.058858,95.004 C24.058858,96.48 24.490858,97.632 25.642858,97.632 Z M34.797144,99.144 C32.505144,99.144 31.485144,97.068 31.485144,95.004 C31.485144,92.94 32.505144,90.876 34.797144,90.876 C37.077144,90.876 38.109144,92.94 38.109144,95.004 C38.109144,97.068 37.077144,99.144 34.797144,99.144 Z M34.797144,97.632 C35.937144,97.632 36.369144,96.48 36.369144,95.004 C36.369144,93.528 35.937144,92.388 34.797144,92.388 C33.645144,92.388 33.213144,93.528 33.213144,95.004 C33.213144,96.48 33.645144,97.632 34.797144,97.632 Z M42.55943,98.412 C42.55943,97.632 42.04343,97.188 41.47943,97.188 C40.97543,97.188 40.54343,97.62 40.54343,98.148 C40.54343,98.664 40.90343,99.012 41.35943,99.012 C41.44343,99.012 41.55143,98.988 41.58743,98.976 C41.49143,99.396 41.04743,99.9 40.66343,100.104 L41.32343,100.644 C42.05543,100.116 42.55943,99.312 42.55943,98.412 Z M48.233716,99.144 C45.941716,99.144 44.921716,97.068 44.921716,95.004 C44.921716,92.94 45.941716,90.876 48.233716,90.876 C50.513716,90.876 51.545716,92.94 51.545716,95.004 C51.545716,97.068 50.513716,99.144 48.233716,99.144 Z M48.233716,97.632 C49.373716,97.632 49.805716,96.48 49.805716,95.004 C49.805716,93.528 49.373716,92.388 48.233716,92.388 C47.081716,92.388 46.649716,93.528 46.649716,95.004 C46.649716,96.48 47.081716,97.632 48.233716,97.632 Z M57.388002,99.144 C55.096002,99.144 54.076002,97.068 54.076002,95.004 C54.076002,92.94 55.096002,90.876 57.388002,90.876 C59.668002,90.876 60.700002,92.94 60.700002,95.004 C60.700002,97.068 59.668002,99.144 57.388002,99.144 Z M57.388002,97.632 C58.528002,97.632 58.960002,96.48 58.960002,95.004 C58.960002,93.528 58.528002,92.388 57.388002,92.388 C56.236002,92.388 55.804002,93.528 55.804002,95.004 C55.804002,96.48 56.236002,97.632 57.388002,97.632 Z M66.542288,99.144 C64.250288,99.144 63.230288,97.068 63.230288,95.004 C63.230288,92.94 64.250288,90.876 66.542288,90.876 C68.822288,90.876 69.854288,92.94 69.854288,95.004 C69.854288,97.068 68.822288,99.144 66.542288,99.144 Z M66.542288,97.632 C67.682288,97.632 68.114288,96.48 68.114288,95.004 C68.114288,93.528 67.682288,92.388 66.542288,92.388 C65.390288,92.388 64.958288,93.528 64.958288,95.004 C64.958288,96.48 65.390288,97.632 66.542288,97.632 Z" id="7,500,000" fill="#55E7FF"></path>
                <path d="M5.14,9 L5.14,0.996 L3.652,0.996 L1.132,3.528 L2.104,4.548 L3.436,3.192 L3.436,9 L5.14,9 Z M11.366286,9.144 C9.074286,9.144 8.054286,7.068 8.054286,5.004 C8.054286,2.94 9.074286,0.876 11.366286,0.876 C13.646286,0.876 14.678286,2.94 14.678286,5.004 C14.678286,7.068 13.646286,9.144 11.366286,9.144 Z M11.366286,7.632 C12.506286,7.632 12.938286,6.48 12.938286,5.004 C12.938286,3.528 12.506286,2.388 11.366286,2.388 C10.214286,2.388 9.782286,3.528 9.782286,5.004 C9.782286,6.48 10.214286,7.632 11.366286,7.632 Z M19.128572,8.412 C19.128572,7.632 18.612572,7.188 18.048572,7.188 C17.544572,7.188 17.112572,7.62 17.112572,8.148 C17.112572,8.664 17.472572,9.012 17.928572,9.012 C18.012572,9.012 18.120572,8.988 18.156572,8.976 C18.060572,9.396 17.616572,9.9 17.232572,10.104 L17.892572,10.644 C18.624572,10.116 19.128572,9.312 19.128572,8.412 Z M24.802858,9.144 C22.510858,9.144 21.490858,7.068 21.490858,5.004 C21.490858,2.94 22.510858,0.876 24.802858,0.876 C27.082858,0.876 28.114858,2.94 28.114858,5.004 C28.114858,7.068 27.082858,9.144 24.802858,9.144 Z M24.802858,7.632 C25.942858,7.632 26.374858,6.48 26.374858,5.004 C26.374858,3.528 25.942858,2.388 24.802858,2.388 C23.650858,2.388 23.218858,3.528 23.218858,5.004 C23.218858,6.48 23.650858,7.632 24.802858,7.632 Z M33.957144,9.144 C31.665144,9.144 30.645144,7.068 30.645144,5.004 C30.645144,2.94 31.665144,0.876 33.957144,0.876 C36.237144,0.876 37.269144,2.94 37.269144,5.004 C37.269144,7.068 36.237144,9.144 33.957144,9.144 Z M33.957144,7.632 C35.097144,7.632 35.529144,6.48 35.529144,5.004 C35.529144,3.528 35.097144,2.388 33.957144,2.388 C32.805144,2.388 32.373144,3.528 32.373144,5.004 C32.373144,6.48 32.805144,7.632 33.957144,7.632 Z M43.11143,9.144 C40.81943,9.144 39.79943,7.068 39.79943,5.004 C39.79943,2.94 40.81943,0.876 43.11143,0.876 C45.39143,0.876 46.42343,2.94 46.42343,5.004 C46.42343,7.068 45.39143,9.144 43.11143,9.144 Z M43.11143,7.632 C44.25143,7.632 44.68343,6.48 44.68343,5.004 C44.68343,3.528 44.25143,2.388 43.11143,2.388 C41.95943,2.388 41.52743,3.528 41.52743,5.004 C41.52743,6.48 41.95943,7.632 43.11143,7.632 Z M50.873716,8.412 C50.873716,7.632 50.357716,7.188 49.793716,7.188 C49.289716,7.188 48.857716,7.62 48.857716,8.148 C48.857716,8.664 49.217716,9.012 49.673716,9.012 C49.757716,9.012 49.865716,8.988 49.901716,8.976 C49.805716,9.396 49.361716,9.9 48.977716,10.104 L49.637716,10.644 C50.369716,10.116 50.873716,9.312 50.873716,8.412 Z M56.548002,9.144 C54.256002,9.144 53.236002,7.068 53.236002,5.004 C53.236002,2.94 54.256002,0.876 56.548002,0.876 C58.828002,0.876 59.860002,2.94 59.860002,5.004 C59.860002,7.068 58.828002,9.144 56.548002,9.144 Z M56.548002,7.632 C57.688002,7.632 58.120002,6.48 58.120002,5.004 C58.120002,3.528 57.688002,2.388 56.548002,2.388 C55.396002,2.388 54.964002,3.528 54.964002,5.004 C54.964002,6.48 55.396002,7.632 56.548002,7.632 Z M65.702288,9.144 C63.410288,9.144 62.390288,7.068 62.390288,5.004 C62.390288,2.94 63.410288,0.876 65.702288,0.876 C67.982288,0.876 69.014288,2.94 69.014288,5.004 C69.014288,7.068 67.982288,9.144 65.702288,9.144 Z M65.702288,7.632 C66.842288,7.632 67.274288,6.48 67.274288,5.004 C67.274288,3.528 66.842288,2.388 65.702288,2.388 C64.550288,2.388 64.118288,3.528 64.118288,5.004 C64.118288,6.48 64.550288,7.632 65.702288,7.632 Z M74.856574,9.144 C72.564574,9.144 71.544574,7.068 71.544574,5.004 C71.544574,2.94 72.564574,0.876 74.856574,0.876 C77.136574,0.876 78.168574,2.94 78.168574,5.004 C78.168574,7.068 77.136574,9.144 74.856574,9.144 Z M74.856574,7.632 C75.996574,7.632 76.428574,6.48 76.428574,5.004 C76.428574,3.528 75.996574,2.388 74.856574,2.388 C73.704574,2.388 73.272574,3.528 73.272574,5.004 C73.272574,6.48 73.704574,7.632 74.856574,7.632 Z" id="10,000,000" fill="#55E7FF"></path>
                <path d="M4.672,185.144 C6.604,185.144 7.876,184.076 7.876,182.372 C7.876,180.752 6.664,179.78 5.308,179.78 C4.576,179.78 3.928,180.068 3.544,180.452 L3.544,178.496 L7.336,178.496 L7.336,176.996 L1.84,176.996 L1.84,181.592 L3.028,181.904 C3.508,181.448 4.048,181.256 4.708,181.256 C5.62,181.256 6.148,181.736 6.148,182.444 C6.148,183.092 5.608,183.632 4.66,183.632 C3.82,183.632 3.076,183.32 2.536,182.756 L1.588,183.944 C2.272,184.688 3.28,185.144 4.672,185.144 Z M12.590286,184.412 C12.590286,183.632 12.074286,183.188 11.510286,183.188 C11.006286,183.188 10.574286,183.62 10.574286,184.148 C10.574286,184.664 10.934286,185.012 11.390286,185.012 C11.474286,185.012 11.582286,184.988 11.618286,184.976 C11.522286,185.396 11.078286,185.9 10.694286,186.104 L11.354286,186.644 C12.086286,186.116 12.590286,185.312 12.590286,184.412 Z M18.264572,185.144 C15.972572,185.144 14.952572,183.068 14.952572,181.004 C14.952572,178.94 15.972572,176.876 18.264572,176.876 C20.544572,176.876 21.576572,178.94 21.576572,181.004 C21.576572,183.068 20.544572,185.144 18.264572,185.144 Z M18.264572,183.632 C19.404572,183.632 19.836572,182.48 19.836572,181.004 C19.836572,179.528 19.404572,178.388 18.264572,178.388 C17.112572,178.388 16.680572,179.528 16.680572,181.004 C16.680572,182.48 17.112572,183.632 18.264572,183.632 Z M27.418858,185.144 C25.126858,185.144 24.106858,183.068 24.106858,181.004 C24.106858,178.94 25.126858,176.876 27.418858,176.876 C29.698858,176.876 30.730858,178.94 30.730858,181.004 C30.730858,183.068 29.698858,185.144 27.418858,185.144 Z M27.418858,183.632 C28.558858,183.632 28.990858,182.48 28.990858,181.004 C28.990858,179.528 28.558858,178.388 27.418858,178.388 C26.266858,178.388 25.834858,179.528 25.834858,181.004 C25.834858,182.48 26.266858,183.632 27.418858,183.632 Z M36.573144,185.144 C34.281144,185.144 33.261144,183.068 33.261144,181.004 C33.261144,178.94 34.281144,176.876 36.573144,176.876 C38.853144,176.876 39.885144,178.94 39.885144,181.004 C39.885144,183.068 38.853144,185.144 36.573144,185.144 Z M36.573144,183.632 C37.713144,183.632 38.145144,182.48 38.145144,181.004 C38.145144,179.528 37.713144,178.388 36.573144,178.388 C35.421144,178.388 34.989144,179.528 34.989144,181.004 C34.989144,182.48 35.421144,183.632 36.573144,183.632 Z M44.33543,184.412 C44.33543,183.632 43.81943,183.188 43.25543,183.188 C42.75143,183.188 42.31943,183.62 42.31943,184.148 C42.31943,184.664 42.67943,185.012 43.13543,185.012 C43.21943,185.012 43.32743,184.988 43.36343,184.976 C43.26743,185.396 42.82343,185.9 42.43943,186.104 L43.09943,186.644 C43.83143,186.116 44.33543,185.312 44.33543,184.412 Z M50.009716,185.144 C47.717716,185.144 46.697716,183.068 46.697716,181.004 C46.697716,178.94 47.717716,176.876 50.009716,176.876 C52.289716,176.876 53.321716,178.94 53.321716,181.004 C53.321716,183.068 52.289716,185.144 50.009716,185.144 Z M50.009716,183.632 C51.149716,183.632 51.581716,182.48 51.581716,181.004 C51.581716,179.528 51.149716,178.388 50.009716,178.388 C48.857716,178.388 48.425716,179.528 48.425716,181.004 C48.425716,182.48 48.857716,183.632 50.009716,183.632 Z M59.164002,185.144 C56.872002,185.144 55.852002,183.068 55.852002,181.004 C55.852002,178.94 56.872002,176.876 59.164002,176.876 C61.444002,176.876 62.476002,178.94 62.476002,181.004 C62.476002,183.068 61.444002,185.144 59.164002,185.144 Z M59.164002,183.632 C60.304002,183.632 60.736002,182.48 60.736002,181.004 C60.736002,179.528 60.304002,178.388 59.164002,178.388 C58.012002,178.388 57.580002,179.528 57.580002,181.004 C57.580002,182.48 58.012002,183.632 59.164002,183.632 Z M68.318288,185.144 C66.026288,185.144 65.006288,183.068 65.006288,181.004 C65.006288,178.94 66.026288,176.876 68.318288,176.876 C70.598288,176.876 71.630288,178.94 71.630288,181.004 C71.630288,183.068 70.598288,185.144 68.318288,185.144 Z M68.318288,183.632 C69.458288,183.632 69.890288,182.48 69.890288,181.004 C69.890288,179.528 69.458288,178.388 68.318288,178.388 C67.166288,178.388 66.734288,179.528 66.734288,181.004 C66.734288,182.48 67.166288,183.632 68.318288,183.632 Z" id="5,000,000" fill="#55E7FF"></path>
                <path d="M7.588,274 L7.588,272.5 L4.324,272.5 C6.4,270.988 7.528,269.8 7.528,268.432 C7.528,266.836 6.172,265.876 4.468,265.876 C3.352,265.876 2.164,266.284 1.384,267.184 L2.356,268.312 C2.896,267.748 3.592,267.388 4.504,267.388 C5.164,267.388 5.8,267.736 5.8,268.432 C5.8,269.416 4.84,270.244 1.564,272.668 L1.564,274 L7.588,274 Z M12.494286,273.412 C12.494286,272.632 11.978286,272.188 11.414286,272.188 C10.910286,272.188 10.478286,272.62 10.478286,273.148 C10.478286,273.664 10.838286,274.012 11.294286,274.012 C11.378286,274.012 11.486286,273.988 11.522286,273.976 C11.426286,274.396 10.982286,274.9 10.598286,275.104 L11.258286,275.644 C11.990286,275.116 12.494286,274.312 12.494286,273.412 Z M18.372572,274.144 C20.304572,274.144 21.576572,273.076 21.576572,271.372 C21.576572,269.752 20.364572,268.78 19.008572,268.78 C18.276572,268.78 17.628572,269.068 17.244572,269.452 L17.244572,267.496 L21.036572,267.496 L21.036572,265.996 L15.540572,265.996 L15.540572,270.592 L16.728572,270.904 C17.208572,270.448 17.748572,270.256 18.408572,270.256 C19.320572,270.256 19.848572,270.736 19.848572,271.444 C19.848572,272.092 19.308572,272.632 18.360572,272.632 C17.520572,272.632 16.776572,272.32 16.236572,271.756 L15.288572,272.944 C15.972572,273.688 16.980572,274.144 18.372572,274.144 Z M27.430858,274.144 C25.138858,274.144 24.118858,272.068 24.118858,270.004 C24.118858,267.94 25.138858,265.876 27.430858,265.876 C29.710858,265.876 30.742858,267.94 30.742858,270.004 C30.742858,272.068 29.710858,274.144 27.430858,274.144 Z M27.430858,272.632 C28.570858,272.632 29.002858,271.48 29.002858,270.004 C29.002858,268.528 28.570858,267.388 27.430858,267.388 C26.278858,267.388 25.846858,268.528 25.846858,270.004 C25.846858,271.48 26.278858,272.632 27.430858,272.632 Z M36.585144,274.144 C34.293144,274.144 33.273144,272.068 33.273144,270.004 C33.273144,267.94 34.293144,265.876 36.585144,265.876 C38.865144,265.876 39.897144,267.94 39.897144,270.004 C39.897144,272.068 38.865144,274.144 36.585144,274.144 Z M36.585144,272.632 C37.725144,272.632 38.157144,271.48 38.157144,270.004 C38.157144,268.528 37.725144,267.388 36.585144,267.388 C35.433144,267.388 35.001144,268.528 35.001144,270.004 C35.001144,271.48 35.433144,272.632 36.585144,272.632 Z M44.34743,273.412 C44.34743,272.632 43.83143,272.188 43.26743,272.188 C42.76343,272.188 42.33143,272.62 42.33143,273.148 C42.33143,273.664 42.69143,274.012 43.14743,274.012 C43.23143,274.012 43.33943,273.988 43.37543,273.976 C43.27943,274.396 42.83543,274.9 42.45143,275.104 L43.11143,275.644 C43.84343,275.116 44.34743,274.312 44.34743,273.412 Z M50.021716,274.144 C47.729716,274.144 46.709716,272.068 46.709716,270.004 C46.709716,267.94 47.729716,265.876 50.021716,265.876 C52.301716,265.876 53.333716,267.94 53.333716,270.004 C53.333716,272.068 52.301716,274.144 50.021716,274.144 Z M50.021716,272.632 C51.161716,272.632 51.593716,271.48 51.593716,270.004 C51.593716,268.528 51.161716,267.388 50.021716,267.388 C48.869716,267.388 48.437716,268.528 48.437716,270.004 C48.437716,271.48 48.869716,272.632 50.021716,272.632 Z M59.176002,274.144 C56.884002,274.144 55.864002,272.068 55.864002,270.004 C55.864002,267.94 56.884002,265.876 59.176002,265.876 C61.456002,265.876 62.488002,267.94 62.488002,270.004 C62.488002,272.068 61.456002,274.144 59.176002,274.144 Z M59.176002,272.632 C60.316002,272.632 60.748002,271.48 60.748002,270.004 C60.748002,268.528 60.316002,267.388 59.176002,267.388 C58.024002,267.388 57.592002,268.528 57.592002,270.004 C57.592002,271.48 58.024002,272.632 59.176002,272.632 Z M68.330288,274.144 C66.038288,274.144 65.018288,272.068 65.018288,270.004 C65.018288,267.94 66.038288,265.876 68.330288,265.876 C70.610288,265.876 71.642288,267.94 71.642288,270.004 C71.642288,272.068 70.610288,274.144 68.330288,274.144 Z M68.330288,272.632 C69.470288,272.632 69.902288,271.48 69.902288,270.004 C69.902288,268.528 69.470288,267.388 68.330288,267.388 C67.178288,267.388 66.746288,268.528 66.746288,270.004 C66.746288,271.48 67.178288,272.632 68.330288,272.632 Z" id="2,500,000" fill="#55E7FF"></path>
                <path d="M753.31,296 L755.88,289.33 L754.26,289.33 L752.42,294.46 L750.57,289.33 L748.95,289.33 L751.53,296 L753.31,296 Z M761.126667,296.12 C759.116667,296.12 757.646667,294.68 757.646667,292.67 C757.646667,290.66 759.116667,289.22 761.126667,289.22 C763.146667,289.22 764.616667,290.66 764.616667,292.67 C764.616667,294.68 763.146667,296.12 761.126667,296.12 Z M761.126667,294.86 C762.356667,294.86 763.156667,293.91 763.156667,292.67 C763.156667,291.42 762.356667,290.48 761.126667,290.48 C759.896667,290.48 759.106667,291.42 759.106667,292.67 C759.106667,293.91 759.896667,294.86 761.126667,294.86 Z M771.523333,296 L771.523333,294.75 L768.703333,294.75 L768.703333,289.33 L767.283333,289.33 L767.283333,296 L771.523333,296 Z M776.95,296.12 C778.98,296.12 779.96,294.99 779.96,293.33 L779.96,289.33 L778.51,289.33 L778.51,293.29 C778.51,294.22 777.98,294.86 776.95,294.86 C775.92,294.86 775.38,294.22 775.38,293.29 L775.38,289.33 L773.94,289.33 L773.94,293.34 C773.94,294.98 774.92,296.12 776.95,296.12 Z M790.166667,296 L790.166667,289.33 L788.166667,289.33 L786.546667,293.36 L784.926667,289.33 L782.936667,289.33 L782.936667,296 L784.356667,296 L784.356667,291.33 L786.236667,296 L786.856667,296 L788.736667,291.33 L788.736667,296 L790.166667,296 Z M797.873333,296 L797.873333,294.75 L794.573333,294.75 L794.573333,293.24 L797.803333,293.24 L797.803333,291.99 L794.573333,291.99 L794.573333,290.58 L797.873333,290.58 L797.873333,289.33 L793.153333,289.33 L793.153333,296 L797.873333,296 Z M802.14,295.51 C802.14,294.86 801.71,294.49 801.24,294.49 C800.82,294.49 800.46,294.85 800.46,295.29 C800.46,295.72 800.76,296.01 801.14,296.01 C801.21,296.01 801.3,295.99 801.33,295.98 C801.25,296.33 800.88,296.75 800.56,296.92 L801.11,297.37 C801.72,296.93 802.14,296.26 802.14,295.51 Z M813.343333,296 L813.343333,294.75 L810.523333,294.75 L810.523333,289.33 L809.103333,289.33 L809.103333,296 L813.343333,296 Z M821.71,296 L818.88,292.46 L821.53,289.33 L819.78,289.33 L817.42,292.31 L817.42,289.33 L816,289.33 L816,296 L817.42,296 L817.42,293.95 L817.94,293.33 L819.96,296 L821.71,296 Z M829.736666,296 L826.906666,292.46 L829.556666,289.33 L827.806666,289.33 L825.446666,292.31 L825.446666,289.33 L824.026666,289.33 L824.026666,296 L825.446666,296 L825.446666,293.95 L825.966666,293.33 L827.986666,296 L829.736666,296 Z M836.883333,296 L836.883333,294.75 L834.163333,294.75 C835.893333,293.49 836.833333,292.5 836.833333,291.36 C836.833333,290.03 835.703333,289.23 834.283333,289.23 C833.353333,289.23 832.363333,289.57 831.713333,290.32 L832.523333,291.26 C832.973333,290.79 833.553333,290.49 834.313333,290.49 C834.863333,290.49 835.393333,290.78 835.393333,291.36 C835.393333,292.18 834.593333,292.87 831.863333,294.89 L831.863333,296 L836.883333,296 Z M843,296 L843,293.27 L845.55,289.33 L843.93,289.33 L842.29,292.01 L840.63,289.33 L839.01,289.33 L841.58,293.27 L841.58,296 L843,296 Z" id="Volume,-LKK2Y" fill="#55E7FF" transform="translate(797.250000, 293.295000) rotate(-90.000000) translate(-797.250000, -293.295000) "></path>
            </g>
        </g>
    </g>
</svg>