<?xml version="1.0" encoding="UTF-8" standalone="no"?>
<svg width="800px" height="277px" viewBox="0 0 800 277" version="1.1" xmlns="http://www.w3.org/2000/svg" xmlns:xlink="http://www.w3.org/1999/xlink">
    <defs></defs>
    <g id="utility_token" stroke="none" stroke-width="1" fill="none" fill-rule="evenodd">
        <g id="LKT_landing/04a_sale_details" transform="translate(-400.000000, -1108.000000)" stroke-width="4">
            <g id="Page-1" transform="translate(400.000000, 1110.000000)">
                <path d="M0,272.693 C40.975,272.693 35.795,0 79.95,0 C124.105,0 119.925,272.693 159.9,272.693 C200.875,272.693 195.695,71 239.85,71 C284.005,71 279.825,272.693 319.8,272.693 C360.774,272.693 355.595,179 399.75,179 C443.905,179 439.725,272.693 479.7,272.693 C520.675,272.693 515.495,234 559.65,234 C603.806,234 599.625,272.693 639.601,272.693 L800,272.693" id="Stroke-1" stroke="#55E7FF"></path>
                <path d="M0,272.693 C40.975,272.693 35.795,54.539 79.95,54.539 C124.105,54.539 119.925,272.693 159.9,272.693 C200.875,272.693 195.695,111.339 239.85,111.339 C284.005,111.339 279.825,272.693 319.8,272.693 C360.774,272.693 355.595,197.739 399.75,197.739 C443.905,197.739 439.725,272.693 479.7,272.693 C520.675,272.693 515.495,241.739 559.65,241.739 C603.806,241.739 599.625,272.693 639.601,272.693 L800,272.693" id="Stroke-3" stroke="#44CBFC"></path>
                <path d="M0,272.693 C40.975,272.693 35.795,109.077 79.95,109.077 C124.105,109.077 119.925,272.693 159.9,272.693 C200.875,272.693 195.695,151.677 239.85,151.677 C284.005,151.677 279.825,272.693 319.8,272.693 C360.774,272.693 355.595,216.477 399.75,216.477 C443.905,216.477 439.725,272.693 479.7,272.693 C520.675,272.693 515.495,249.477 559.65,249.477 C603.806,249.477 599.625,272.693 639.601,272.693 L800,272.693" id="Stroke-5" stroke="#33B0FA"></path>
                <path d="M0,272.693 C40.975,272.693 35.795,163.616 79.95,163.616 C124.105,163.616 119.925,272.693 159.9,272.693 C200.875,272.693 195.695,192.015 239.85,192.015 C284.005,192.015 279.825,272.693 319.8,272.693 C360.774,272.693 355.595,235.215 399.75,235.215 C443.905,235.215 439.725,272.693 479.7,272.693 C520.675,272.693 515.495,257.215 559.65,257.215 C603.806,257.215 599.625,272.693 639.601,272.693 L800,272.693" id="Stroke-7" stroke="#2294F7"></path>
                <path d="M0,272.693 C40.975,272.693 35.795,218.154 79.95,218.154 C124.105,218.154 119.925,272.693 159.9,272.693 C200.875,272.693 195.695,232.354 239.85,232.354 C284.005,232.354 279.825,272.693 319.8,272.693 C360.774,272.693 355.595,253.955 399.75,253.955 C443.905,253.955 439.725,272.693 479.7,272.693 C520.675,272.693 515.495,264.955 559.65,264.955 C603.806,264.955 599.625,272.693 639.601,272.693 L800,272.693" id="Stroke-9" stroke="#1179F5"></path>
                <polyline id="Stroke-11" stroke="#005DF2" points="0 272.693 79.95 272.693 159.9 272.693 239.85 272.693 319.8 272.693 399.75 272.693 479.7 272.693 559.65 272.693 639.601 272.693 800 272.693"></polyline>
            </g>
        </g>
    </g>
</svg>