<?xml version="1.0" encoding="UTF-8" standalone="no"?>
<svg width="134px" height="39px" viewBox="0 0 134 39" version="1.1" xmlns="http://www.w3.org/2000/svg" xmlns:xlink="http://www.w3.org/1999/xlink">
    <!-- Generator: Sketch 47.1 (45422) - http://www.bohemiancoding.com/sketch -->
    <title>logo_streams</title>
    <desc>Created with Sketch.</desc>
    <defs></defs>
    <g id="utility_token" stroke="none" stroke-width="1" fill="none" fill-rule="evenodd">
        <g id="LKT_landing/07a_footer" transform="translate(-120.000000, -685.000000)" fill="#FFFFFF">
            <g id="logo_streams" transform="translate(120.000000, 685.000000)">
                <g id="logo_updated-copy">
                    <g id="Group">
                        <g id="Shape">
                            <polygon points="9.53129101 39.0697674 20.6924682 27.7105943 31.8182131 39.0697674 31.8182131 32.2687339 20.6924682 20.9095607 9.53129101 32.2687339 9.53129101 32.2687339 9.53129101 32.2687339"></polygon>
                            <polygon points="0.212593852 16.0620155 15.9799712 16.0620155 20.6924682 20.9095607 4.92509089 20.9095607 4.92509089 20.9095607 4.92509089 20.9095607"></polygon>
                            <polygon points="41.1723426 16.0620155 25.4049653 16.0620155 25.4049653 4.81136951 20.6924682 0 20.6924682 20.9095607 36.4598455 20.9095607 36.4598455 20.9095607 36.4598455 20.9095607"></polygon>
                        </g>
                        <g transform="translate(49.959555, 9.405685)" id="Shape">
                            <path d="M83.0533313,15.4470284 C83.0533313,10.0206718 79.8644236,6.36692506 75.0810619,6.36692506 C70.4039972,6.36692506 66.8607663,10.0930233 66.8607663,15.0129199 C66.8607663,20.1136951 70.3331325,23.6950904 75.3290881,23.6950904 C77.9156466,23.6950904 80.3250436,22.8268734 81.8486328,21.4160207 L82.0257944,21.2713178 L79.9352882,18.124031 L79.7226943,18.3410853 C78.7305897,19.3178295 76.9589742,19.8604651 75.7897081,19.8604651 C73.6283372,19.8604651 72.0338834,18.630491 71.644128,16.6770026 L83.0533313,16.6770026 L83.0533313,15.4470284 L83.0533313,15.4470284 Z M78.6242928,13.2764858 L71.6086957,13.2764858 C71.8921541,11.7932817 72.9551234,10.2739018 75.1164942,10.2739018 C76.2857604,10.2377261 78.305402,10.8888889 78.6242928,13.2764858 L78.6242928,13.2764858 Z"></path>
                            <polygon points="13.8186003 18.7028424 4.78336166 18.7028424 4.78336166 0.289405685 0.141729234 0.289405685 0.141729234 23.2248062 15.5902158 23.2248062"></polygon>
                            <polygon points="66.364714 23.2248062 59.8806015 14.3979328 66.1875524 6.8372093 60.5892477 6.8372093 55.4515629 13.1679587 55.4515629 0.289405685 50.8099305 0.289405685 50.8099305 23.2248062 55.4515629 23.2248062 55.4515629 15.6640827 61.2270292 23.2248062"></polygon>
                            <polygon points="48.5068305 23.2248062 42.022718 14.3979328 48.3296689 6.8372093 42.6959318 6.8372093 37.5582471 13.1679587 37.5582471 0.289405685 32.9166147 0.289405685 32.9166147 23.2248062 37.5582471 23.2248062 37.5582471 15.6640827 43.3337134 23.2248062"></polygon>
                            <polygon points="25.7947207 6.62015504 22.0388959 16.4237726 18.3539358 6.62015504 13.3579803 6.62015504 19.6649313 22.5374677 17.1492374 29.0490956 21.932599 29.0490956 30.8969731 6.62015504"></polygon>
                        </g>
                    </g>
                </g>
            </g>
        </g>
    </g>
</svg>